bw_sq_140_02
version=1
nRows=22
nColumns=46
inDegrees=yes
endheader
time	ground_force3_vx	ground_force3_vy	ground_force3_vz	ground_force3_px	ground_force3_py	ground_force3_pz	ground_torque3_x	ground_torque3_y	ground_torque3_z	ground_force5_vx	ground_force5_vy	ground_force5_vz	ground_force5_px	ground_force5_py	ground_force5_pz	ground_torque5_x	ground_torque5_y	ground_torque5_z	ground_force4_vx	ground_force4_vy	ground_force4_vz	ground_force4_px	ground_force4_py	ground_force4_pz	ground_torque4_x	ground_torque4_y	ground_torque4_z	ground_force1_vx	ground_force1_vy	ground_force1_vz	ground_force1_px	ground_force1_py	ground_force1_pz	ground_torque1_x	ground_torque1_y	ground_torque1_z	ground_force2_vx	ground_force2_vy	ground_force2_vz	ground_force2_px	ground_force2_py	ground_force2_pz	ground_torque2_x	ground_torque2_y	ground_torque2_z
0.878000	-0.000000	-0.000000	0.000000	0.200000	0.000000	-0.300000	0.000000	0.000000	-0.000000	-2.006890	342.892029	108.443031	0.213432	0.000000	-1.571326	0.000037	1.812032	0.000007	1.325337	301.283081	-104.609268	0.193969	0.000000	-0.829146	0.000017	-1.343245	0.000003	-0.000000	-0.000000	0.000000	0.200000	0.000000	0.904000	0.000000	0.000000	-0.000000	-0.000000	-0.000000	0.000000	0.400000	0.000000	0.302000	0.000000	0.000000	-0.000000	
0.879000	-0.000000	-0.000000	0.000000	0.200000	0.000000	-0.300000	0.000000	0.000000	-0.000000	-2.007400	343.848389	108.281479	0.213731	0.000000	-1.570971	0.000010	1.749028	0.000006	1.492557	300.643280	-104.771851	0.193727	0.000000	-0.829849	0.000031	-1.189724	0.000003	-0.000000	-0.000000	0.000000	0.200000	0.000000	0.904000	0.000000	0.000000	-0.000000	-0.000000	-0.000000	0.000000	0.400000	0.000000	0.302000	0.000000	0.000000	-0.000000	
0.880000	-0.000000	-0.000000	0.000000	0.200000	0.000000	-0.300000	0.000000	0.000000	-0.000000	-2.007909	343.530823	108.281479	0.214050	0.000000	-1.571930	0.000035	1.780867	0.000004	1.813098	300.638916	-103.968155	0.194534	0.000000	-0.828881	0.000008	-1.262778	0.000002	-0.000000	-0.000000	0.000000	0.200000	0.000000	0.904000	0.000000	0.000000	-0.000000	-0.000000	-0.000000	0.000000	0.400000	0.000000	0.302000	0.000000	0.000000	-0.000000	
0.881000	-0.000000	-0.000000	0.000000	0.200000	0.000000	-0.300000	0.000000	0.000000	-0.000000	-1.524271	345.760742	109.727982	0.213502	0.000000	-1.571118	0.000015	1.709336	0.000004	0.355993	301.601959	-104.450775	0.194450	0.000000	-0.828155	-0.000000	-1.395082	0.000005	-0.000000	-0.000000	0.000000	0.200000	0.000000	0.904000	0.000000	0.000000	-0.000000	-0.000000	-0.000000	0.000000	0.400000	0.000000	0.302000	0.000000	0.000000	-0.000000	
0.882000	-0.000000	-0.000000	0.000000	0.200000	0.000000	-0.300000	0.000000	0.000000	-0.000000	-1.846187	345.447479	109.084488	0.213763	0.000000	-1.572517	0.000035	1.636609	0.000005	1.650510	300.650360	-104.127663	0.193269	0.000000	-0.828499	0.000015	-1.381207	0.000001	-0.000000	-0.000000	0.000000	0.200000	0.000000	0.904000	0.000000	0.000000	-0.000000	-0.000000	-0.000000	0.000000	0.400000	0.000000	0.302000	0.000000	0.000000	-0.000000	
0.883000	-0.000000	-0.000000	0.000000	0.200000	0.000000	-0.300000	0.000000	0.000000	-0.000000	-2.168612	345.759705	109.566772	0.213596	0.000000	-1.572575	0.000028	1.754303	0.000002	0.515490	301.606659	-104.611313	0.193219	0.000000	-0.829855	0.000017	-1.591460	0.000002	-0.000000	-0.000000	0.000000	0.200000	0.000000	0.904000	0.000000	0.000000	-0.000000	-0.000000	-0.000000	0.000000	0.400000	0.000000	0.302000	0.000000	0.000000	-0.000000	
0.884000	-0.000000	-0.000000	0.000000	0.200000	0.000000	-0.300000	0.000000	0.000000	-0.000000	-1.845677	346.402130	110.049728	0.213846	0.000000	-1.572012	0.000017	1.664688	0.000000	0.846842	301.282715	-104.127663	0.194138	0.000000	-0.829482	0.000014	-1.124887	0.000006	-0.000000	-0.000000	0.000000	0.200000	0.000000	0.904000	0.000000	0.000000	-0.000000	-0.000000	-0.000000	0.000000	0.400000	0.000000	0.302000	0.000000	0.000000	-0.000000	
0.885000	-0.000000	-0.000000	0.000000	0.200000	0.000000	-0.300000	0.000000	0.000000	-0.000000	-2.329825	347.992615	109.405899	0.212760	0.000000	-1.571274	0.000034	1.868962	0.000003	0.676533	302.885193	-103.640968	0.193513	0.000000	-0.830422	0.000013	-1.420418	0.000005	-0.000000	-0.000000	0.000000	0.200000	0.000000	0.904000	0.000000	0.000000	-0.000000	-0.000000	-0.000000	0.000000	0.400000	0.000000	0.302000	0.000000	0.000000	-0.000000	
0.886000	-0.000000	-0.000000	0.000000	0.200000	0.000000	-0.300000	0.000000	0.000000	-0.000000	-1.525799	349.274139	109.566772	0.213668	0.000000	-1.572044	0.000040	1.830081	0.000007	1.162750	302.887268	-104.288200	0.194103	0.000000	-0.828449	0.000019	-1.409414	0.000005	-0.000000	-0.000000	0.000000	0.200000	0.000000	0.904000	0.000000	0.000000	-0.000000	-0.000000	-0.000000	0.000000	0.400000	0.000000	0.302000	0.000000	0.000000	-0.000000	
0.887000	-0.000000	-0.000000	0.000000	0.200000	0.000000	-0.300000	0.000000	0.000000	-0.000000	-2.168103	347.996948	109.405563	0.213856	0.000000	-1.571604	0.000057	1.603684	0.000003	0.681167	307.048523	-103.482468	0.193703	0.000000	-0.831991	0.000013	-1.302865	-0.000001	-0.000000	-0.000000	0.000000	0.200000	0.000000	0.904000	0.000000	0.000000	-0.000000	-0.000000	-0.000000	0.000000	0.400000	0.000000	0.302000	0.000000	0.000000	-0.000000	
0.888000	-0.000000	-0.000000	0.000000	0.200000	0.000000	-0.300000	0.000000	0.000000	-0.000000	-2.330334	347.678711	109.727982	0.213924	0.000000	-1.572871	0.000041	1.882418	0.000005	-0.128680	302.573395	-104.287186	0.192530	0.000000	-0.829009	0.000007	-1.501489	0.000002	-0.000000	-0.000000	0.000000	0.200000	0.000000	0.904000	0.000000	0.000000	-0.000000	-0.000000	-0.000000	0.000000	0.400000	0.000000	0.302000	0.000000	0.000000	-0.000000	
0.889000	-0.000000	-0.000000	0.000000	0.200000	0.000000	-0.300000	0.000000	0.000000	-0.000000	-1.042161	346.401794	110.691193	0.213500	0.000000	-1.573007	0.000004	1.646971	0.000000	0.196495	302.563660	-104.448738	0.193812	0.000000	-0.829436	-0.000002	-1.299462	0.000005	-0.000000	-0.000000	0.000000	0.200000	0.000000	0.904000	0.000000	0.000000	-0.000000	-0.000000	-0.000000	0.000000	0.400000	0.000000	0.302000	0.000000	0.000000	-0.000000	
0.890000	-0.000000	-0.000000	0.000000	0.200000	0.000000	-0.300000	0.000000	0.000000	-0.000000	-2.169122	347.677368	111.012596	0.212677	0.000000	-1.571651	0.000024	1.841463	0.000002	0.355993	303.843872	-103.802521	0.193864	0.000000	-0.829234	0.000013	-1.297811	0.000001	-0.000000	-0.000000	0.000000	0.200000	0.000000	0.904000	0.000000	0.000000	-0.000000	-0.000000	-0.000000	0.000000	0.400000	0.000000	0.302000	0.000000	0.000000	-0.000000	
0.891000	-0.000000	-0.000000	0.000000	0.200000	0.000000	-0.300000	0.000000	0.000000	-0.000000	-2.329825	348.316162	109.887497	0.213263	0.000000	-1.572379	0.000051	1.752299	0.000003	0.194950	305.764282	-103.803543	0.194360	0.000000	-0.829693	0.000005	-1.264620	0.000000	-0.000000	-0.000000	0.000000	0.200000	0.000000	0.904000	0.000000	0.000000	-0.000000	-0.000000	-0.000000	0.000000	0.400000	0.000000	0.302000	0.000000	0.000000	-0.000000	
0.892000	-0.000000	-0.000000	0.000000	0.200000	0.000000	-0.300000	0.000000	0.000000	-0.000000	-1.846696	347.997253	110.691528	0.213671	0.000000	-1.572145	0.000020	1.688579	0.000009	-0.127136	302.563660	-103.644028	0.194001	0.000000	-0.830132	0.000010	-1.317619	0.000004	-0.000000	-0.000000	0.000000	0.200000	0.000000	0.904000	0.000000	0.000000	-0.000000	-0.000000	-0.000000	0.000000	0.400000	0.000000	0.302000	0.000000	0.000000	-0.000000	
0.893000	-0.000000	-0.000000	0.000000	0.200000	0.000000	-0.300000	0.000000	0.000000	-0.000000	-2.006890	347.357483	110.852066	0.213006	0.000000	-1.572981	0.000004	1.656936	0.000003	-0.611808	303.524323	-103.480431	0.193824	0.000000	-0.829722	0.000010	-1.241480	0.000002	-0.000000	-0.000000	0.000000	0.200000	0.000000	0.904000	0.000000	0.000000	-0.000000	-0.000000	-0.000000	0.000000	0.400000	0.000000	0.302000	0.000000	0.000000	-0.000000	
0.894000	-0.000000	-0.000000	0.000000	0.200000	0.000000	-0.300000	0.000000	0.000000	-0.000000	-1.685483	349.270142	110.047699	0.212348	0.000000	-1.572364	0.000018	1.684373	0.000004	0.035452	304.164124	-103.481445	0.194190	0.000000	-0.829050	0.000018	-1.194828	0.000001	-0.000000	-0.000000	0.000000	0.200000	0.000000	0.904000	0.000000	0.000000	-0.000000	-0.000000	-0.000000	0.000000	0.400000	0.000000	0.302000	0.000000	0.000000	-0.000000	
0.895000	-0.000000	-0.000000	0.000000	0.200000	0.000000	-0.300000	0.000000	0.000000	-0.000000	-2.006890	348.632019	111.012253	0.212311	0.000000	-1.573073	0.000027	1.674384	0.000005	0.194950	302.887238	-103.318878	0.193693	0.000000	-0.829541	0.000015	-1.272577	0.000003	-0.000000	-0.000000	0.000000	0.200000	0.000000	0.904000	0.000000	0.000000	-0.000000	-0.000000	-0.000000	0.000000	0.400000	0.000000	0.302000	0.000000	0.000000	-0.000000	
0.896000	-0.000000	-0.000000	0.000000	0.200000	0.000000	-0.300000	0.000000	0.000000	-0.000000	-2.006890	348.313477	110.690170	0.212670	0.000000	-1.571926	0.000022	1.559080	0.000004	0.518580	304.804932	-103.159363	0.194023	0.000000	-0.829979	0.000010	-1.271925	0.000003	-0.000000	-0.000000	0.000000	0.200000	0.000000	0.904000	0.000000	0.000000	-0.000000	-0.000000	-0.000000	0.000000	0.400000	0.000000	0.302000	0.000000	0.000000	-0.000000	
0.897000	-0.000000	-0.000000	0.000000	0.200000	0.000000	-0.300000	0.000000	0.000000	-0.000000	-1.524271	347.358154	111.655411	0.212180	0.000000	-1.574319	-0.000001	1.720360	0.000002	-0.450765	305.117401	-102.515182	0.194735	0.000000	-0.830156	0.000010	-1.200787	0.000003	-0.000000	-0.000000	0.000000	0.200000	0.000000	0.904000	0.000000	0.000000	-0.000000	-0.000000	-0.000000	0.000000	0.400000	0.000000	0.302000	0.000000	0.000000	-0.000000	
0.898000	-0.000000	-0.000000	0.000000	0.200000	0.000000	-0.300000	0.000000	0.000000	-0.000000	-2.007400	345.765686	111.816284	0.212964	0.000000	-1.572632	0.000037	1.712886	0.000004	-0.125591	301.607330	-103.161407	0.193373	0.000000	-0.829206	0.000022	-1.333964	0.000006	-0.000000	-0.000000	0.000000	0.200000	0.000000	0.904000	0.000000	0.000000	-0.000000	-0.000000	-0.000000	0.000000	0.400000	0.000000	0.302000	0.000000	0.000000	-0.000000	
0.899000	-0.000000	-0.000000	0.000000	0.200000	0.000000	-0.300000	0.000000	0.000000	-0.000000	-2.007909	348.947937	111.815948	0.212430	0.000000	-1.572009	0.000013	1.797243	0.000001	1.491012	303.207123	-103.159363	0.193782	0.000000	-0.829387	0.000012	-1.160230	0.000003	-0.000000	-0.000000	0.000000	0.200000	0.000000	0.904000	0.000000	0.000000	-0.000000	-0.000000	-0.000000	0.000000	0.400000	0.000000	0.302000	0.000000	0.000000	-0.000000	
